<?xml version="1.0" encoding="utf-8"?>
<!-- Generator: Adobe Illustrator 15.1.0, SVG Export Plug-In . SVG Version: 6.00 Build 0)  -->
<!DOCTYPE svg PUBLIC "-//W3C//DTD SVG 1.1//EN" "http://www.w3.org/Graphics/SVG/1.1/DTD/svg11.dtd">
<svg version="1.1" id="Layer_1" xmlns="http://www.w3.org/2000/svg" xmlns:xlink="http://www.w3.org/1999/xlink" x="0px" y="0px"
	 width="343.666px" height="343.652px" viewBox="0 0 343.666 343.652" enable-background="new 0 0 343.666 343.652"
	 xml:space="preserve">
<polygon fill="none" points="343.666,343.652 0,343.452 0,0 343.666,0.2 "/>
<g>
	<path fill="none" stroke="#000000" stroke-width="3" stroke-miterlimit="10" d="M118.522,251.307
		c-11.176-21.831-16.763-47.76-16.763-77.797c0-3.73,0.103-7.384,0.27-10.988c-4.151,0.134-8.696,0.355-13.664,0.671v70.095
		l0.411,62.695c10.552,2.467,21.377,3.7,32.478,3.7c13.383,0,24.781-1.473,34.202-4.412C140.316,284.465,128,269.82,118.522,251.307
		z"/>
	<path fill="none" stroke="#000000" stroke-width="3" stroke-miterlimit="10" d="M159.708,46.73
		c-8.979-3.482-20.898-5.228-35.781-5.228c-12.744,0-23.981,1.028-33.711,3.083c-1.233,12.333-1.85,33.849-1.85,64.545v37
		c1.803,0.146,3.669,0.27,5.597,0.377c2.968,0.163,6.1,0.277,9.362,0.351c4.066-33.47,16.118-60.98,36.188-82.505
		C145.77,57.645,152.501,51.772,159.708,46.73z"/>
	<path fill="none" stroke="#000000" stroke-width="3" stroke-miterlimit="10" d="M239.039,248.293
		c-2.745,9.182-7.781,18.295-15.108,27.339c-5.486,6.77-11.84,12.809-19.054,18.119c9.989,3.851,20.792,5.783,32.417,5.783
		c8.833,0,17.851-1.092,27.059-3.275c9.203-2.184,16.785-5.26,22.75-9.229c0.958-4.232,1.434-12.768,1.434-25.602v-22.029
		c0-10.449,0.118-9.66-0.945-12.241c-1.062-2.579-3.696-4.395-7.9-5.459c-1.649-0.415-17.314-1.508-36.589-2.7
		c0.017,0.72,0.049,1.43,0.049,2.161C243.15,230.068,241.779,239.112,239.039,248.293z"/>
	<path fill="none" stroke="#000000" stroke-width="3" stroke-miterlimit="10" d="M199.777,227.532c0-3.844-0.219-7.533-0.643-11.077
		c-15.57-0.842-28.464-1.466-32.944-1.552l-1.434-1.787l-0.651-16.039l1.434-1.786l28.436,1.543
		c-2.705-6.227-6.346-11.795-10.95-16.683c-8.346-8.854-23.938-14.4-46.769-16.641c-0.002,0.423-0.013,0.842-0.013,1.267
		c0,24.345,4.094,47.007,12.293,67.975c7.693,19.694,18.538,35.334,32.524,46.92c4.41-4.542,8.017-9.755,10.804-15.653
		C197.136,252.85,199.777,240.688,199.777,227.532z"/>
	<path fill="none" stroke="#000000" stroke-width="3" stroke-miterlimit="10" d="M147.655,100.573
		c-5.446,13.782-8.932,28.674-10.479,44.659c15.016-2.259,26.238-6.747,33.619-13.49c11.101-10.141,16.65-24.05,16.65-41.729
		c0-10.278-2.129-19.014-6.372-26.208c-0.943-1.598-2.014-3.107-3.197-4.54C164.705,69.184,154.622,82.944,147.655,100.573z"/>
	<path fill="#FFFFFF" stroke="#000000" stroke-width="3" stroke-miterlimit="10" d="M164.105,197.077l0.651,16.039l1.434,1.787
		c4.48,0.086,17.374,0.71,32.944,1.552c-0.854-7.151-2.58-13.688-5.16-19.621l-28.436-1.543L164.105,197.077z"/>
	<path fill="#FFFFFF" stroke="#000000" stroke-width="3" stroke-miterlimit="10" d="M329.085,200.301
		c-11.711,0.795-20.591,1.19-26.661,1.19c-10.534,0-24.158-0.326-40.868-0.992l-21.391-1.16c1.792,6.001,2.771,12.555,2.937,19.659
		c19.274,1.192,34.939,2.285,36.589,2.7c4.204,1.064,6.839,2.88,7.9,5.459c1.063,2.581,0.945,1.792,0.945,12.241v22.029
		c0,12.834-0.476,21.369-1.434,25.602c-5.965,3.97-13.547,7.046-22.75,9.229c-9.208,2.184-18.226,3.275-27.059,3.275
		c-11.625,0-22.428-1.933-32.417-5.783c-7.479-2.883-14.502-6.837-21.064-11.881c-0.931-0.716-1.848-1.45-2.752-2.199
		c-13.986-11.586-24.831-27.226-32.524-46.92c-8.199-20.968-12.293-43.63-12.293-67.975c0-0.425,0.01-0.844,0.013-1.267
		c-7.733-0.759-16.294-1.14-25.69-1.14c-2.619,0-5.473,0.053-8.537,0.151c-0.167,3.604-0.27,7.258-0.27,10.988
		c0,30.037,5.586,55.966,16.763,77.797c9.477,18.513,21.793,33.158,36.935,43.964c2.713,1.937,5.507,3.765,8.402,5.453
		c4.911,2.865,9.978,5.354,15.193,7.481c15.014,6.122,31.287,9.19,48.823,9.19c30.754,0,60.714-6.946,89.875-20.839l0.96-1.986
		c-1.175-13.494-1.757-25.998-1.757-37.509c0-10.188,0.24-18.821,0.718-25.9c0.48-7.073,0.878-11.013,1.195-11.809
		c0.318-0.793,1.44-1.914,3.354-3.374l7.823-5.755l0.636-2.381v-5.953L329.085,200.301z"/>
	<path fill="#FFFFFF" stroke="#000000" stroke-width="3" stroke-miterlimit="10" d="M318.389,42.721
		c-23.733-12.57-50.502-18.854-80.295-18.854c-16.157,0-31.091,2.15-44.807,6.436c-12.15,3.796-23.346,9.269-33.58,16.428
		c-7.207,5.042-13.938,10.915-20.194,17.624c-20.071,21.525-32.123,49.035-36.188,82.505c2.664,0.061,5.41,0.095,8.268,0.095
		c9.504,0,18.016-0.583,25.582-1.722c1.548-15.985,5.034-30.877,10.479-44.659c6.967-17.628,17.05-31.389,30.22-41.307
		c1.213-0.913,2.441-1.805,3.705-2.653c9.789-6.558,20.538-10.965,32.231-13.246c6.229-1.215,12.721-1.837,19.489-1.837
		c9.154,0,17.721,0.963,25.705,2.878c7.98,1.918,15.936,4.962,23.864,9.129c7.928,4.167,12.852,7.215,14.766,9.129
		c1.915,1.919,3.06,3.474,3.433,4.664c0.372,1.191,0.719,5.231,1.037,12.106l0.799,21.037l1.276,1.588h7.345l1.277-1.389
		c2.555-28.311,4.788-46.904,6.705-55.769L318.389,42.721z"/>
	<path fill="#1C75BC" stroke="#000000" stroke-width="3" stroke-miterlimit="10" d="M243.102,218.999
		c-0.165-7.104-1.145-13.658-2.937-19.659c-0.852-2.85-1.862-5.59-3.079-8.19c-4.042-8.634-9.558-15.657-16.547-21.07
		s-15.283-9.421-24.872-12.025c-9.593-2.603-21.789-4.591-36.59-5.961c24.667-5.618,42.479-14.937,53.445-27.956
		c10.963-13.019,16.444-27.133,16.444-42.345c0-11.922-3.288-22.577-9.866-31.964c-1.632-2.329-3.396-4.481-5.289-6.46
		c-11.693,2.281-22.442,6.688-32.231,13.246c-1.264,0.848-2.492,1.74-3.705,2.653c1.184,1.432,2.254,2.942,3.197,4.54
		c4.243,7.194,6.372,15.93,6.372,26.208c0,17.678-5.55,31.587-16.65,41.729c-7.381,6.743-18.603,11.231-33.619,13.49
		c-7.566,1.139-16.078,1.722-25.582,1.722c-2.858,0-5.604-0.034-8.268-0.095c-3.263-0.073-6.394-0.188-9.362-0.351
		c-1.928-0.107-3.794-0.231-5.597-0.377v-37c0-30.696,0.617-52.211,1.85-64.545c9.73-2.056,20.967-3.083,33.711-3.083
		c14.883,0,26.802,1.746,35.781,5.228c10.234-7.159,21.429-12.631,33.58-16.428c-0.099-0.035-0.194-0.073-0.293-0.106
		c-10.826-3.699-25.488-5.549-43.989-5.549c-4.801,0-12.539,0.137-23.229,0.411c-33.167,1.096-52.143,1.645-56.939,1.645
		c-12.745,0-30.834-0.549-54.267-1.645l-1.645,1.439v10.278l1.645,1.439l15.623,1.233c4.796,0.548,8.188,1.199,10.175,1.953
		c1.983,0.753,3.524,1.678,4.625,2.774c1.096,1.097,1.88,3.015,2.364,5.756c0.479,2.741,0.852,7.297,1.13,13.67
		c0.274,6.372,0.411,14.629,0.411,24.769l0.206,46.662v75.44c0,12.059-0.381,29.531-1.13,52.417
		c-0.754,22.885-1.747,35.014-2.981,36.384c-1.233,1.37-5.829,3.837-13.772,7.4l-1.645,2.055v6.783l1.645,1.646
		c13.567-1.097,25.005-1.646,34.328-1.646c1.508,0,11.375,0.206,29.601,0.617c16.444,0.686,26.311,1.028,29.6,1.028
		c16.166,0,29.704-1.439,40.599-4.317c4.612-1.218,9.18-2.775,13.705-4.633c-5.216-2.127-10.282-4.616-15.193-7.481
		c-2.896-1.688-5.689-3.517-8.402-5.453c-9.421,2.939-20.819,4.412-34.202,4.412c-11.101,0-21.926-1.233-32.478-3.7l-0.411-62.695
		v-70.095c4.967-0.315,9.513-0.537,13.664-0.671c3.063-0.099,5.918-0.151,8.537-0.151c9.396,0,17.957,0.381,25.69,1.14
		c22.831,2.24,38.423,7.786,46.769,16.641c4.604,4.888,8.245,10.456,10.95,16.683c2.58,5.934,4.306,12.47,5.16,19.621
		c0.424,3.544,0.643,7.233,0.643,11.077c0,13.156-2.642,25.318-7.913,36.486c-2.787,5.898-6.394,11.111-10.804,15.653
		c0.904,0.749,1.821,1.483,2.752,2.199c6.562,5.044,13.586,8.998,21.064,11.881c7.214-5.311,13.567-11.35,19.054-18.119
		c7.327-9.044,12.363-18.157,15.108-27.339c2.74-9.182,4.111-18.226,4.111-27.134C243.15,220.428,243.118,219.718,243.102,218.999z"
		/>
</g>
</svg>
