<?xml version="1.0" encoding="utf-8"?>
<!-- Generator: Adobe Illustrator 15.1.0, SVG Export Plug-In . SVG Version: 6.00 Build 0)  -->
<!DOCTYPE svg PUBLIC "-//W3C//DTD SVG 1.1//EN" "http://www.w3.org/Graphics/SVG/1.1/DTD/svg11.dtd">
<svg version="1.1" id="Layer_1" xmlns="http://www.w3.org/2000/svg" xmlns:xlink="http://www.w3.org/1999/xlink" x="0px" y="0px"
	 width="595.238px" height="595.238px" viewBox="0 0 595.238 595.238" enable-background="new 0 0 595.238 595.238"
	 xml:space="preserve">
<rect x="234.925" y="234.464" fill="#0084A9" width="127.944" height="127.942"/>
<polygon fill="#AD208E" points="395.955,38.359 38.788,38.359 38.823,362.389 103.187,362.389 103.187,102.72 460.325,102.72 "/>
<polygon fill="#F78E1E" points="202.144,362.313 202.144,201.678 559.28,201.678 497.633,140.041 140.481,140.041 140.481,362.313 
	"/>
<polygon fill="#009DDC" points="202.225,558.595 560.882,558.607 560.848,234.574 496.501,234.574 496.501,494.26 137.861,494.236 
	"/>
<polygon fill="#C1D82F" points="395.688,234.646 395.688,395.282 38.904,395.282 100.535,456.929 457.329,456.929 457.329,234.646 
	"/>
<polygon fill="#008FC9" points="205.667,554.03 554.448,554.03 554.412,240.517 544.805,240.615 544.805,545.863 197.488,545.863 
	"/>
<polyline fill="#B0C62B" points="103.158,450.545 452.339,450.545 452.339,240.505 445.537,240.505 445.537,443.737 96.374,443.737 
	"/>
<polygon fill="#007799" points="356.649,240.339 241.236,240.339 241.236,356.261 247.337,356.261 247.337,246.708 356.649,246.708 
	"/>
<polygon fill="#0095B7" points="251.131,356.191 356.649,356.191 356.649,250.696 350.543,250.696 350.543,350.185 251.131,350.185 
	"/>
<polygon fill="#B956A0" points="97.55,356.417 97.55,96.444 446.327,96.444 436.58,86.163 87.278,86.163 87.278,356.347 "/>
<polygon fill="#35ABE1" points="502.531,240.517 502.414,499.929 151.207,499.929 160.779,509.2 512.916,509.2 512.823,240.485 "/>
<polygon fill="#CDDE5C" points="402.263,240.345 402.263,401.857 53.901,401.857 59.797,407.742 408.142,407.742 408.142,240.345 
	"/>
<polygon fill="#911076" points="53.112,356.377 53.112,52.218 404.342,52.102 395.792,43.38 43.473,43.363 43.504,356.377 "/>
<polygon fill="#F9A24A" points="197.059,356.365 197.059,196.854 546.188,196.854 540.054,190.97 191.181,190.97 191.181,356.365 
	"/>
<polygon fill="#E4841C" points="155.107,356.365 155.2,153.2 502.403,153.2 495.595,146.38 147.283,146.38 147.283,356.365 "/>
<path fill="none" stroke="#000000" stroke-width="0.1" d="M41.451,391.681"/>
<path fill="none" stroke="#000000" stroke-width="0.1" d="M211.905,562.132"/>
</svg>
