<?xml version="1.0" encoding="UTF-8" standalone="no"?>
<!-- Generator: Adobe Illustrator 15.1.0, SVG Export Plug-In . SVG Version: 6.00 Build 0)  -->

<svg
   xmlns:dc="http://purl.org/dc/elements/1.1/"
   xmlns:cc="http://creativecommons.org/ns#"
   xmlns:rdf="http://www.w3.org/1999/02/22-rdf-syntax-ns#"
   xmlns:svg="http://www.w3.org/2000/svg"
   xmlns="http://www.w3.org/2000/svg"
   xmlns:sodipodi="http://sodipodi.sourceforge.net/DTD/sodipodi-0.dtd"
   xmlns:inkscape="http://www.inkscape.org/namespaces/inkscape"
   version="1.1"
   id="Layer_1"
   x="0px"
   y="0px"
   width="522.09399"
   height="522.09399"
   viewBox="0 0 522.09402 522.09402"
   enable-background="new 0 0 595.238 595.238"
   xml:space="preserve"
   sodipodi:docname="jalview_test-release_logo.svg"
   inkscape:version="0.92.5 (2060ec1f9f, 2020-04-08)"><metadata
   id="metadata41"><rdf:RDF><cc:Work
       rdf:about=""><dc:format>image/svg+xml</dc:format><dc:type
         rdf:resource="http://purl.org/dc/dcmitype/StillImage" /><dc:title></dc:title></cc:Work></rdf:RDF></metadata><defs
   id="defs39" /><sodipodi:namedview
   pagecolor="#ffffff"
   bordercolor="#666666"
   borderopacity="1"
   objecttolerance="10"
   gridtolerance="10"
   guidetolerance="10"
   inkscape:pageopacity="0"
   inkscape:pageshadow="2"
   inkscape:window-width="2569"
   inkscape:window-height="1721"
   id="namedview37"
   showgrid="false"
   fit-margin-top="0"
   fit-margin-left="0"
   fit-margin-right="0"
   fit-margin-bottom="0"
   inkscape:zoom="2.24283"
   inkscape:cx="258.83099"
   inkscape:cy="260.988"
   inkscape:window-x="0"
   inkscape:window-y="0"
   inkscape:window-maximized="0"
   inkscape:current-layer="Layer_1" />
<rect
   x="196.13701"
   y="197.95102"
   width="127.944"
   height="127.942"
   id="rect2"
   style="fill:#0084a9" />
<polygon
   points="38.823,362.389 103.187,362.389 103.187,102.72 460.325,102.72 395.955,38.359 38.788,38.359 "
   id="polygon4"
   style="fill:#ad208e"
   transform="translate(-38.788,-36.512996)" />
<polygon
   points="559.28,201.678 497.633,140.041 140.481,140.041 140.481,362.313 202.144,362.313 202.144,201.678 "
   id="polygon6"
   style="fill:#f78e1e"
   transform="translate(-38.788,-36.512996)" />
<polygon
   points="560.848,234.574 496.501,234.574 496.501,494.26 137.861,494.236 202.225,558.595 560.882,558.607 "
   id="polygon8"
   style="fill:#009ddc"
   transform="translate(-38.788,-36.512996)" />
<polygon
   points="38.904,395.282 100.535,456.929 457.329,456.929 457.329,234.646 395.688,234.646 395.688,395.282 "
   id="polygon10"
   style="fill:#c1d82f"
   transform="translate(-38.788,-36.512996)" />
<polygon
   points="554.412,240.517 544.805,240.615 544.805,545.863 197.488,545.863 205.667,554.03 554.448,554.03 "
   id="polygon12"
   style="fill:#008fc9"
   transform="translate(-38.788,-36.512996)" />
<polyline
   points="103.158,450.545 452.339,450.545 452.339,240.505 445.537,240.505 445.537,443.737 96.374,443.737   "
   id="polyline14"
   style="fill:#b0c62b"
   transform="translate(-38.788,-36.512996)" />
<polygon
   points="241.236,356.261 247.337,356.261 247.337,246.708 356.649,246.708 356.649,240.339 241.236,240.339 "
   id="polygon16"
   style="fill:#007799"
   transform="translate(-38.788,-36.512996)" />
<polygon
   points="356.649,250.696 350.543,250.696 350.543,350.185 251.131,350.185 251.131,356.191 356.649,356.191 "
   id="polygon18"
   style="fill:#0095b7"
   transform="translate(-38.788,-36.512996)" />
<polygon
   points="446.327,96.444 436.58,86.163 87.278,86.163 87.278,356.347 97.55,356.417 97.55,96.444 "
   id="polygon20"
   style="fill:#b956a0"
   transform="translate(-38.788,-36.512996)" />
<polygon
   points="151.207,499.929 160.779,509.2 512.916,509.2 512.823,240.485 502.531,240.517 502.414,499.929 "
   id="polygon22"
   style="fill:#35abe1"
   transform="translate(-38.788,-36.512996)" />
<polygon
   points="53.901,401.857 59.797,407.742 408.142,407.742 408.142,240.345 402.263,240.345 402.263,401.857 "
   id="polygon24"
   style="fill:#cdde5c"
   transform="translate(-38.788,-36.512996)" />
<polygon
   points="404.342,52.102 395.792,43.38 43.473,43.363 43.504,356.377 53.112,356.377 53.112,52.218 "
   id="polygon26"
   style="fill:#911076"
   transform="translate(-38.788,-36.512996)" />
<polygon
   points="546.188,196.854 540.054,190.97 191.181,190.97 191.181,356.365 197.059,356.365 197.059,196.854 "
   id="polygon28"
   style="fill:#f9a24a"
   transform="translate(-38.788,-36.512996)" />
<polygon
   points="502.403,153.2 495.595,146.38 147.283,146.38 147.283,356.365 155.107,356.365 155.2,153.2 "
   id="polygon30"
   style="fill:#e4841c"
   transform="translate(-38.788,-36.512996)" />
<path
   d="M 2.663,355.168"
   id="path32"
   inkscape:connector-curvature="0"
   style="fill:none;stroke:#000000;stroke-width:0.1" />

</svg>